<svg xmlns="http://www.w3.org/2000/svg" xmlns:xlink="http://www.w3.org/1999/xlink" width="320" zoomAndPan="magnify" viewBox="0 0 240 119.999999" height="160" preserveAspectRatio="xMidYMid meet" version="1.0"><defs><g/></defs><g fill="#2d7236" fill-opacity="1"><g transform="translate(12.000001, 31.132275)"><g><path d="M 4.390625 -9.0625 L 4.390625 0 L 1.0625 0 L 1.0625 -14.59375 L 4.390625 -14.59375 L 10.1875 -5.53125 L 10.21875 -5.53125 L 10.21875 -14.59375 L 13.546875 -14.59375 L 13.546875 0 L 10.21875 0 L 4.421875 -9.0625 Z M 4.390625 -9.0625 "/></g></g></g><g fill="#2d7236" fill-opacity="1"><g transform="translate(26.61082, 31.132275)"><g><path d="M 1.921875 -1.078125 C 0.910156 -1.972656 0.40625 -3.125 0.40625 -4.53125 C 0.40625 -5.9375 0.929688 -7.085938 1.984375 -7.984375 C 3.035156 -8.890625 4.332031 -9.34375 5.875 -9.34375 C 7.394531 -9.34375 8.675781 -8.882812 9.71875 -7.96875 C 10.757812 -7.0625 11.28125 -5.910156 11.28125 -4.515625 C 11.28125 -3.128906 10.769531 -1.984375 9.75 -1.078125 C 8.726562 -0.179688 7.4375 0.265625 5.875 0.265625 C 4.25 0.265625 2.929688 -0.179688 1.921875 -1.078125 Z M 4.34375 -6.0625 C 3.9375 -5.664062 3.734375 -5.15625 3.734375 -4.53125 C 3.734375 -3.90625 3.925781 -3.394531 4.3125 -3 C 4.707031 -2.601562 5.222656 -2.40625 5.859375 -2.40625 C 6.472656 -2.40625 6.972656 -2.601562 7.359375 -3 C 7.753906 -3.40625 7.953125 -3.914062 7.953125 -4.53125 C 7.953125 -5.15625 7.75 -5.664062 7.34375 -6.0625 C 6.9375 -6.46875 6.441406 -6.671875 5.859375 -6.671875 C 5.253906 -6.671875 4.75 -6.46875 4.34375 -6.0625 Z M 4.34375 -6.0625 "/></g></g></g><g fill="#2d7236" fill-opacity="1"><g transform="translate(38.303016, 31.132275)"><g><path d="M 1.671875 -1.125 C 0.828125 -2.050781 0.40625 -3.1875 0.40625 -4.53125 C 0.40625 -5.875 0.828125 -7.007812 1.671875 -7.9375 C 2.523438 -8.875 3.609375 -9.34375 4.921875 -9.34375 C 6.117188 -9.34375 7.109375 -8.960938 7.890625 -8.203125 L 7.890625 -15.21875 L 11.015625 -15.21875 L 11.015625 0 L 7.921875 0 L 7.921875 -1.03125 L 7.890625 -1.03125 C 7.109375 -0.164062 6.117188 0.265625 4.921875 0.265625 C 3.609375 0.265625 2.523438 -0.195312 1.671875 -1.125 Z M 4.34375 -6.0625 C 3.9375 -5.664062 3.734375 -5.15625 3.734375 -4.53125 C 3.734375 -3.90625 3.925781 -3.394531 4.3125 -3 C 4.707031 -2.601562 5.222656 -2.40625 5.859375 -2.40625 C 6.472656 -2.40625 6.972656 -2.601562 7.359375 -3 C 7.753906 -3.40625 7.953125 -3.914062 7.953125 -4.53125 C 7.953125 -5.15625 7.75 -5.664062 7.34375 -6.0625 C 6.9375 -6.46875 6.441406 -6.671875 5.859375 -6.671875 C 5.253906 -6.671875 4.75 -6.46875 4.34375 -6.0625 Z M 4.34375 -6.0625 "/></g></g></g><g fill="#2d7236" fill-opacity="1"><g transform="translate(50.38437, 31.132275)"><g><path d="M 10.234375 -4.109375 L 3.65625 -4.109375 C 3.65625 -3.460938 3.863281 -2.988281 4.28125 -2.6875 C 4.695312 -2.382812 5.144531 -2.234375 5.625 -2.234375 C 6.132812 -2.234375 6.535156 -2.300781 6.828125 -2.4375 C 7.117188 -2.570312 7.453125 -2.835938 7.828125 -3.234375 L 10.09375 -2.109375 C 9.15625 -0.523438 7.585938 0.265625 5.390625 0.265625 C 4.023438 0.265625 2.851562 -0.203125 1.875 -1.140625 C 0.894531 -2.078125 0.40625 -3.207031 0.40625 -4.53125 C 0.40625 -5.851562 0.894531 -6.984375 1.875 -7.921875 C 2.851562 -8.867188 4.023438 -9.34375 5.390625 -9.34375 C 6.828125 -9.34375 8 -8.925781 8.90625 -8.09375 C 9.8125 -7.257812 10.265625 -6.070312 10.265625 -4.53125 C 10.265625 -4.3125 10.253906 -4.171875 10.234375 -4.109375 Z M 3.75 -5.84375 L 7.203125 -5.84375 C 7.128906 -6.3125 6.941406 -6.671875 6.640625 -6.921875 C 6.335938 -7.179688 5.953125 -7.3125 5.484375 -7.3125 C 4.960938 -7.3125 4.546875 -7.171875 4.234375 -6.890625 C 3.929688 -6.617188 3.769531 -6.269531 3.75 -5.84375 Z M 3.75 -5.84375 "/></g></g></g><g fill="#844040" fill-opacity="1"><g transform="translate(190.413169, 93.160866)"><g><path d="M 11.546875 -17.90625 L 11.546875 -14.328125 L 5.375 -14.328125 L 5.375 -10.765625 L 11.28125 -10.765625 L 11.28125 -7.1875 L 5.375 -7.1875 L 5.375 -3.578125 L 11.546875 -3.578125 L 11.546875 0 L 1.296875 0 L 1.296875 -17.90625 Z M 11.546875 -17.90625 "/></g></g></g><g fill="#844040" fill-opacity="1"><g transform="translate(202.997011, 93.160866)"><g><path d="M 1.296875 0 L 1.296875 -11.140625 L 5.140625 -11.140625 L 5.140625 -9.96875 L 5.1875 -9.96875 C 6.1875 -10.957031 7.25 -11.453125 8.375 -11.453125 C 8.925781 -11.453125 9.472656 -11.378906 10.015625 -11.234375 C 10.554688 -11.097656 11.078125 -10.875 11.578125 -10.5625 C 12.078125 -10.257812 12.484375 -9.828125 12.796875 -9.265625 C 13.109375 -8.710938 13.265625 -8.066406 13.265625 -7.328125 L 13.265625 0 L 9.421875 0 L 9.421875 -6.296875 C 9.421875 -6.867188 9.234375 -7.375 8.859375 -7.8125 C 8.492188 -8.25 8.015625 -8.46875 7.421875 -8.46875 C 6.835938 -8.46875 6.3125 -8.242188 5.84375 -7.796875 C 5.375 -7.347656 5.140625 -6.847656 5.140625 -6.296875 L 5.140625 0 Z M 1.296875 0 "/></g></g></g><g fill="#844040" fill-opacity="1"><g transform="translate(217.338238, 93.160866)"><g><path d="M 7.234375 -8.3125 C 6.503906 -8.3125 5.878906 -8.039062 5.359375 -7.5 C 4.835938 -6.96875 4.578125 -6.328125 4.578125 -5.578125 C 4.578125 -4.804688 4.835938 -4.15625 5.359375 -3.625 C 5.878906 -3.09375 6.503906 -2.828125 7.234375 -2.828125 C 7.578125 -2.828125 7.90625 -2.867188 8.21875 -2.953125 C 8.53125 -3.035156 8.753906 -3.125 8.890625 -3.21875 L 9.09375 -3.34375 L 10.390625 -0.671875 C 10.296875 -0.597656 10.15625 -0.503906 9.96875 -0.390625 C 9.789062 -0.285156 9.378906 -0.140625 8.734375 0.046875 C 8.085938 0.234375 7.394531 0.328125 6.65625 0.328125 C 5.019531 0.328125 3.582031 -0.242188 2.34375 -1.390625 C 1.113281 -2.546875 0.5 -3.925781 0.5 -5.53125 C 0.5 -7.15625 1.113281 -8.546875 2.34375 -9.703125 C 3.582031 -10.867188 5.019531 -11.453125 6.65625 -11.453125 C 7.394531 -11.453125 8.078125 -11.363281 8.703125 -11.1875 C 9.328125 -11.019531 9.769531 -10.847656 10.03125 -10.671875 L 10.390625 -10.421875 L 9.09375 -7.796875 C 8.613281 -8.140625 7.992188 -8.3125 7.234375 -8.3125 Z M 7.234375 -8.3125 "/></g></g></g><g fill="#30325d" fill-opacity="1"><g transform="translate(12.000001, 69.359514)"><g><path d="M 20.023438 -33.546875 C 10.414062 -33.546875 2.355469 -25.914062 2.355469 -16.492188 C 2.355469 -7.066406 10.414062 0.566406 20.023438 0.566406 C 29.589844 0.566406 37.691406 -7.066406 37.691406 -16.492188 C 37.691406 -25.914062 29.589844 -33.546875 20.023438 -33.546875 Z M 20.023438 -7.773438 C 15.40625 -7.773438 11.636719 -11.683594 11.636719 -16.492188 C 11.636719 -21.296875 15.40625 -25.160156 20.023438 -25.160156 C 24.640625 -25.160156 28.363281 -21.296875 28.363281 -16.492188 C 28.363281 -11.683594 24.640625 -7.773438 20.023438 -7.773438 Z M 20.023438 -7.773438 "/></g></g></g><g fill="#30325d" fill-opacity="1"><g transform="translate(52.022919, 69.359514)"><g><path d="M 18.5625 -25.679688 C 16.019531 -25.679688 12.628906 -24.078125 11.636719 -22.664062 L 11.636719 -23.839844 C 11.636719 -24.5 11.074219 -25.019531 10.460938 -25.019531 L 3.488281 -25.019531 C 2.875 -25.019531 2.355469 -24.5 2.355469 -23.839844 L 2.355469 8.714844 C 2.355469 9.375 2.875 9.894531 3.488281 9.894531 L 10.460938 9.894531 C 11.074219 9.894531 11.636719 9.375 11.636719 8.714844 L 11.636719 -1.601562 C 13.617188 -0.234375 16.019531 0.566406 18.5625 0.566406 C 25.535156 0.566406 30.578125 -5.324219 30.578125 -12.578125 C 30.578125 -19.835938 25.535156 -25.679688 18.5625 -25.679688 Z M 16.539062 -6.878906 C 13.804688 -6.878906 11.636719 -9.421875 11.636719 -12.578125 C 11.636719 -15.738281 13.804688 -18.328125 16.539062 -18.328125 C 19.222656 -18.328125 21.296875 -15.738281 21.296875 -12.578125 C 21.296875 -9.421875 19.222656 -6.878906 16.539062 -6.878906 Z M 16.539062 -6.878906 "/></g></g></g><g fill="#30325d" fill-opacity="1"><g transform="translate(84.93588, 69.359514)"><g><path d="M 24.6875 -9.660156 C 27.234375 -9.660156 27.46875 -10.460938 27.46875 -12.578125 C 27.46875 -19.835938 23.085938 -25.679688 15.691406 -25.679688 C 7.207031 -25.679688 2.355469 -19.835938 2.355469 -12.578125 C 2.355469 -5.324219 7.257812 0.566406 16.066406 0.566406 C 19.316406 0.566406 23.132812 0 25.867188 -1.695312 C 26.289062 -1.980469 26.621094 -2.496094 26.339844 -3.25 C 26.101562 -3.816406 25.207031 -6.265625 25.019531 -6.738281 C 24.640625 -7.445312 23.980469 -7.445312 23.371094 -7.207031 C 21.671875 -6.453125 19.976562 -5.890625 17.101562 -5.984375 C 15.3125 -6.03125 12.578125 -6.832031 11.636719 -9.660156 Z M 15.691406 -19.175781 C 17.902344 -19.175781 19.035156 -17.246094 19.035156 -14.371094 L 11.449219 -14.371094 C 11.449219 -17.292969 13.097656 -19.175781 15.691406 -19.175781 Z M 15.691406 -19.175781 "/></g></g></g><g fill="#30325d" fill-opacity="1"><g transform="translate(114.74121, 69.359514)"><g><path d="M 3.535156 0 L 10.460938 0 C 11.121094 0 11.636719 -0.519531 11.636719 -1.128906 L 11.636719 -15.03125 C 11.636719 -17.667969 13.710938 -18.328125 15.03125 -18.328125 C 16.253906 -18.328125 18.375 -17.621094 18.375 -15.03125 L 18.375 -1.128906 C 18.375 -0.519531 18.894531 0 19.554688 0 L 26.480469 0 C 27.140625 0 27.65625 -0.519531 27.65625 -1.128906 L 27.65625 -16.632812 C 27.65625 -22.425781 25.113281 -25.679688 18.847656 -25.679688 C 16.019531 -25.679688 12.675781 -24.171875 11.636719 -22.664062 L 11.636719 -23.839844 C 11.636719 -24.5 11.121094 -25.019531 10.460938 -25.019531 L 3.535156 -25.019531 C 2.875 -25.019531 2.355469 -24.5 2.355469 -23.839844 L 2.355469 -1.128906 C 2.355469 -0.519531 2.875 0 3.535156 0 Z M 3.535156 0 "/></g></g></g><g fill="#30325d" fill-opacity="1"><g transform="translate(144.734876, 69.359514)"><g><path d="M 19.316406 -18.328125 C 14.183594 -22.003906 12.484375 -23.277344 13.097656 -24.878906 C 13.332031 -25.488281 14.371094 -25.867188 15.265625 -25.867188 C 17.574219 -25.867188 19.554688 -25.160156 21.109375 -24.59375 C 22.003906 -24.265625 22.332031 -24.734375 22.472656 -25.300781 C 22.570312 -25.867188 23.417969 -30.203125 23.511719 -30.765625 C 23.652344 -31.425781 23.277344 -31.945312 22.570312 -32.132812 C 20.964844 -32.699219 17.667969 -33.546875 14.324219 -33.546875 C 10.554688 -33.546875 3.488281 -32.980469 2.636719 -25.960938 C 1.933594 -20.308594 5.464844 -16.539062 9.46875 -13.804688 C 13.285156 -11.167969 14.605469 -10.507812 14.605469 -9.140625 C 14.558594 -7.773438 12.816406 -7.160156 10.601562 -7.257812 C 8.859375 -7.398438 6.738281 -8.386719 4.945312 -9.1875 C 4.429688 -9.421875 3.957031 -9.046875 3.863281 -8.761719 C 3.769531 -8.433594 2.589844 -4.097656 2.449219 -3.441406 C 2.261719 -2.734375 2.402344 -2.355469 2.828125 -2.074219 C 4.003906 -1.320312 7.113281 0.566406 12.15625 0.566406 C 20.070312 0.566406 23.652344 -2.734375 24.640625 -6.597656 C 25.679688 -10.648438 24.453125 -14.699219 19.316406 -18.328125 Z M 19.316406 -18.328125 "/></g></g></g><g fill="#30325d" fill-opacity="1"><g transform="translate(172.091725, 69.359514)"><g><path d="M 19.316406 -18.328125 C 14.183594 -22.003906 12.484375 -23.277344 13.097656 -24.878906 C 13.332031 -25.488281 14.371094 -25.867188 15.265625 -25.867188 C 17.574219 -25.867188 19.554688 -25.160156 21.109375 -24.59375 C 22.003906 -24.265625 22.332031 -24.734375 22.472656 -25.300781 C 22.570312 -25.867188 23.417969 -30.203125 23.511719 -30.765625 C 23.652344 -31.425781 23.277344 -31.945312 22.570312 -32.132812 C 20.964844 -32.699219 17.667969 -33.546875 14.324219 -33.546875 C 10.554688 -33.546875 3.488281 -32.980469 2.636719 -25.960938 C 1.933594 -20.308594 5.464844 -16.539062 9.46875 -13.804688 C 13.285156 -11.167969 14.605469 -10.507812 14.605469 -9.140625 C 14.558594 -7.773438 12.816406 -7.160156 10.601562 -7.257812 C 8.859375 -7.398438 6.738281 -8.386719 4.945312 -9.1875 C 4.429688 -9.421875 3.957031 -9.046875 3.863281 -8.761719 C 3.769531 -8.433594 2.589844 -4.097656 2.449219 -3.441406 C 2.261719 -2.734375 2.402344 -2.355469 2.828125 -2.074219 C 4.003906 -1.320312 7.113281 0.566406 12.15625 0.566406 C 20.070312 0.566406 23.652344 -2.734375 24.640625 -6.597656 C 25.679688 -10.648438 24.453125 -14.699219 19.316406 -18.328125 Z M 19.316406 -18.328125 "/></g></g></g><g fill="#30325d" fill-opacity="1"><g transform="translate(199.448573, 69.359514)"><g><path d="M 26.386719 -8.105469 L 12.0625 -8.105469 L 12.0625 -31.804688 C 12.0625 -32.464844 11.542969 -32.980469 10.929688 -32.980469 L 3.535156 -32.980469 C 2.875 -32.980469 2.355469 -32.464844 2.355469 -31.804688 L 2.355469 -1.179688 C 2.355469 -0.519531 2.875 0 3.535156 0 L 26.386719 0 C 27.042969 0 27.5625 -0.519531 27.5625 -1.179688 L 27.5625 -6.925781 C 27.5625 -7.585938 27.042969 -8.105469 26.386719 -8.105469 Z M 26.386719 -8.105469 "/></g></g></g><path stroke-linecap="butt" transform="matrix(3, 0.00000000000000075, -0.00000000000000075, 3, 12.000001, 85.044849)" fill="none" stroke-linejoin="miter" d="M -0.000000283333 0.499373 L 56.846357 0.499373 " stroke="#30325d" stroke-width="1" stroke-opacity="1" stroke-miterlimit="4"/><path stroke-linecap="butt" transform="matrix(3, -0.000000000000000372, 0.000000000000000372, 3, 69.447742, 25.184186)" fill="none" stroke-linejoin="miter" d="M 0.000492337 0.499803 L 52.850756 0.499803 " stroke="#30325d" stroke-width="1" stroke-opacity="1" stroke-miterlimit="4"/></svg>